<?xml version="1.0" standalone="no"?>
<!DOCTYPE svg PUBLIC "-//W3C//DTD SVG 20010904//EN"
 "http://www.w3.org/TR/2001/REC-SVG-20010904/DTD/svg10.dtd">
<svg version="1.0" xmlns="http://www.w3.org/2000/svg"
 width="700.000000pt" height="700.000000pt" viewBox="0 0 700.000000 700.000000"
 preserveAspectRatio="xMidYMid meet">
<metadata>
Created by potrace 1.14, written by Peter Selinger 2001-2017
</metadata>
<g transform="translate(0.000000,700.000000) scale(0.100000,-0.100000)"
fill="#000000" stroke="none">
<path d="M3338 6095 c-2 -2 -32 -6 -68 -9 -36 -4 -76 -8 -90 -11 -14 -2 -41
-6 -60 -9 -19 -3 -50 -10 -68 -15 -18 -5 -35 -10 -37 -10 -3 -1 -7 -2 -10 -2
-13 -4 -23 -6 -55 -13 -140 -31 -353 -126 -545 -243 -11 -7 -27 -15 -35 -19
-8 -4 -17 -10 -20 -13 -3 -4 -40 -33 -84 -65 -43 -32 -88 -66 -99 -75 -24 -18
-267 -261 -282 -282 -6 -8 -34 -44 -63 -81 -156 -201 -286 -464 -367 -744 -15
-49 -28 -98 -29 -109 -2 -11 -6 -34 -11 -52 -8 -34 -14 -36 -140 -59 -22 -3
-46 -11 -52 -17 -7 -5 -13 -7 -13 -4 0 8 -150 -44 -223 -76 -31 -14 -61 -27
-65 -27 -4 -1 -14 -7 -22 -15 -8 -7 -35 -23 -59 -35 -24 -12 -62 -35 -85 -51
-22 -16 -52 -37 -66 -47 -104 -73 -285 -259 -372 -382 -128 -181 -221 -385
-272 -600 -16 -66 -19 -86 -35 -200 -10 -69 -7 -418 3 -460 3 -14 9 -45 12
-70 4 -25 10 -54 15 -66 4 -12 5 -24 2 -27 -3 -3 -1 -12 3 -19 4 -7 9 -19 9
-28 3 -31 74 -227 107 -295 41 -86 132 -238 153 -255 8 -7 15 -18 15 -25 0 -8
3 -15 8 -17 4 -1 32 -32 62 -68 69 -82 188 -198 260 -253 30 -23 57 -45 58
-49 2 -5 9 -8 17 -8 7 0 18 -7 25 -15 45 -54 377 -202 515 -229 17 -4 41 -9
55 -12 29 -6 55 -10 125 -21 65 -10 4323 -10 4395 0 214 30 460 139 625 276
41 34 217 213 230 233 6 9 31 44 57 79 58 80 162 283 163 319 0 3 3 10 6 15 6
9 35 119 45 169 20 97 26 355 12 471 -28 227 -95 408 -224 606 -86 131 -294
325 -424 395 -19 11 -37 21 -40 24 -3 3 -33 18 -67 33 -176 78 -330 112 -534
118 l-67 2 -1 166 c-1 91 -3 184 -5 206 -7 81 -18 191 -22 210 -2 11 -6 34 -9
50 -3 17 -8 41 -10 55 -3 14 -7 35 -10 48 -32 168 -158 493 -247 632 -12 19
-22 37 -23 40 -1 10 -60 95 -67 98 -5 2 -8 8 -8 14 0 6 -10 22 -22 37 -13 15
-34 43 -48 61 -37 51 -168 200 -209 238 -20 19 -56 53 -81 76 -88 82 -340 266
-364 266 -3 0 -28 13 -56 30 -27 16 -50 27 -50 24 0 -3 -13 4 -30 16 -16 12
-30 19 -30 16 0 -3 -21 4 -47 15 -27 11 -57 24 -68 28 -30 13 -154 52 -179 57
-11 3 -41 9 -66 15 -154 33 -281 46 -467 46 -95 0 -174 -1 -175 -2z m492 -519
c63 -14 122 -27 130 -30 182 -53 421 -185 568 -313 107 -93 231 -228 293 -318
19 -27 37 -52 40 -55 11 -8 119 -200 119 -210 0 -5 8 -24 18 -42 23 -42 84
-208 76 -208 -4 0 -2 -6 4 -13 6 -7 20 -57 31 -112 41 -208 43 -234 46 -695 1
-223 3 -408 4 -411 0 -3 40 -5 89 -4 48 0 93 -3 100 -8 6 -5 12 -6 12 -1 0 11
181 11 198 0 7 -4 12 -4 12 1 0 13 188 3 263 -13 12 -3 32 -7 45 -10 79 -16
220 -87 297 -149 146 -118 239 -247 299 -412 14 -40 24 -73 21 -73 -2 0 0 -12
5 -26 11 -28 21 -114 22 -184 3 -303 -132 -569 -381 -748 -40 -29 -196 -114
-203 -111 -2 1 -23 -4 -48 -11 -46 -12 -55 -14 -125 -25 -44 -6 -4146 -7
-4210 -1 -90 10 -188 31 -270 58 -100 34 -285 131 -285 151 0 4 -5 7 -11 7
-33 0 -276 250 -310 319 -8 14 -21 37 -31 50 -10 13 -32 53 -49 90 -131 275
-156 582 -75 912 30 122 135 325 221 428 37 45 161 166 200 197 117 90 253
160 380 195 119 32 190 41 350 45 61 1 115 2 121 3 6 1 10 13 11 29 0 49 13
245 17 251 2 3 6 29 10 58 3 28 10 63 16 77 5 14 8 26 5 26 -2 0 2 18 10 40 8
22 12 40 10 40 -8 0 69 201 110 287 46 95 166 280 226 349 108 124 253 257
364 332 109 73 306 174 363 186 10 2 26 6 37 10 49 19 74 26 125 35 30 6 69
13 85 17 17 3 45 7 63 9 18 1 36 5 39 9 3 3 101 4 217 2 181 -4 227 -8 326
-30z"/>
<path d="M2630 4542 l-25 -3 1 -837 c1 -884 0 -902 -46 -991 -23 -47 -67 -85
-116 -101 -44 -15 -130 -8 -171 14 -65 33 -119 127 -126 221 l-4 40 -199 0
-198 0 3 -45 c6 -99 8 -113 25 -195 28 -133 139 -285 261 -355 159 -91 413
-104 582 -30 212 93 353 305 379 570 9 93 10 1698 1 1707 -7 6 -319 11 -367 5z"/>
<path d="M3363 4542 l-31 -3 1 -197 2 -197 355 -1 c195 0 375 -4 400 -8 155
-28 250 -164 252 -360 2 -165 -43 -273 -144 -346 -64 -47 -119 -52 -508 -54
l-355 -1 0 -565 0 -565 198 -2 197 -2 1 22 c0 12 1 180 2 372 l2 350 195 1
c180 2 255 6 320 21 49 10 130 43 170 68 22 14 42 25 45 25 15 0 136 131 167
180 42 68 95 205 105 270 40 282 11 490 -94 679 -52 95 -162 200 -256 245
-130 63 -174 68 -607 69 -212 1 -399 1 -417 -1z"/>
</g>
</svg>
