<svg width="1741" height="538" viewBox="0 0 1741 538" fill="none" xmlns="http://www.w3.org/2000/svg">
<path d="M38.9446 536.658L0 498.421L238.536 268.329L0 38.2369L38.9446 0L317.121 268.329L38.9446 536.658Z" fill="white" fill-opacity="0.47"/>
<path d="M214.195 538L175.251 499.763L413.787 269.671L175.251 39.5786L214.195 1.34164L492.371 269.671L214.195 538Z" fill="white" fill-opacity="0.47"/>
<path d="M400.573 536.658L361.629 498.421L600.164 268.329L361.629 38.2369L400.573 0L678.749 268.329L400.573 536.658Z" fill="white" fill-opacity="0.47"/>
<path d="M575.824 538L536.879 499.763L775.415 269.671L536.879 39.5786L575.824 1.34164L854 269.671L575.824 538Z" fill="white" fill-opacity="0.47"/>
<path d="M1702.06 1.3417L1741 39.5786L1502.46 269.671L1741 499.763L1702.06 538L1423.88 269.671L1702.06 1.3417Z" fill="white" fill-opacity="0.47"/>
<path d="M1526.8 7.53558e-05L1565.75 38.237L1327.21 268.329L1565.75 498.421L1526.8 536.658L1248.63 268.329L1526.8 7.53558e-05Z" fill="white" fill-opacity="0.47"/>
<path d="M1340.43 1.3417L1379.37 39.5786L1140.84 269.671L1379.37 499.763L1340.43 538L1062.25 269.671L1340.43 1.3417Z" fill="white" fill-opacity="0.47"/>
<path d="M1165.18 7.53558e-05L1204.12 38.237L965.585 268.329L1204.12 498.421L1165.18 536.658L887 268.329L1165.18 7.53558e-05Z" fill="white" fill-opacity="0.47"/>
</svg>
