<svg width="208" height="208" viewBox="0 0 208 208" fill="none" xmlns="http://www.w3.org/2000/svg">
<path fill-rule="evenodd" clip-rule="evenodd" d="M72.3641 53H91.8187V117.909C91.8187 123.909 90.4702 129.121 87.7732 133.545C85.1066 137.97 81.3945 141.379 76.6369 143.773C71.8793 146.167 66.349 147.364 60.046 147.364C54.4399 147.364 49.349 146.379 44.7732 144.409C40.2278 142.409 36.6217 139.379 33.9551 135.318C31.2884 131.227 29.9702 126.091 30.0005 119.909H49.5914C49.652 122.364 50.152 124.47 51.0914 126.227C52.0611 127.955 53.3793 129.288 55.046 130.227C56.7429 131.136 58.7429 131.591 61.046 131.591C63.4702 131.591 65.5157 131.076 67.1823 130.045C68.8793 128.985 70.1672 127.439 71.046 125.409C71.9248 123.379 72.3641 120.879 72.3641 117.909V99.9998L80.0005 95.5909L72.3641 91.1821V53ZM108.091 90.4472V53H144.819C151.879 53 157.894 54.3485 162.864 57.0455C167.834 59.7121 171.622 63.4242 174.228 68.1818C176.864 72.9091 178.182 78.3636 178.182 84.5455C178.182 90.7273 176.849 96.1818 174.182 100.909C171.516 105.636 167.652 109.318 162.591 111.955C157.561 114.591 151.47 115.909 144.319 115.909H127.773V146.091H108.091V100.735L117.001 95.5909L108.091 90.4472ZM141.137 100.136H127.773V69.0909H141.046C144.864 69.0909 148.016 69.7424 150.501 71.0455C152.985 72.3182 154.834 74.1212 156.046 76.4545C157.288 78.7576 157.91 81.4545 157.91 84.5455C157.91 87.6061 157.288 90.3182 156.046 92.6818C154.834 95.0152 152.985 96.8485 150.501 98.1818C148.046 99.4848 144.925 100.136 141.137 100.136Z" fill="#0287C3"/>
<g filter="url(#filter0_d_1_59)">
<path fill-rule="evenodd" clip-rule="evenodd" d="M204 0H4V200H204V0ZM191.489 15.5388H16.7765V184.289H191.489V15.5388Z" fill="#03A9F4"/>
<path fill-rule="evenodd" clip-rule="evenodd" d="M204 0H4V200H204V0ZM191.489 15.5388H16.7765V184.289H191.489V15.5388Z" fill="black" fill-opacity="0.2"/>
</g>
<defs>
<filter id="filter0_d_1_59" x="0" y="0" width="208" height="208" filterUnits="userSpaceOnUse" color-interpolation-filters="sRGB">
<feFlood flood-opacity="0" result="BackgroundImageFix"/>
<feColorMatrix in="SourceAlpha" type="matrix" values="0 0 0 0 0 0 0 0 0 0 0 0 0 0 0 0 0 0 127 0" result="hardAlpha"/>
<feOffset dy="4"/>
<feGaussianBlur stdDeviation="2"/>
<feComposite in2="hardAlpha" operator="out"/>
<feColorMatrix type="matrix" values="0 0 0 0 0 0 0 0 0 0 0 0 0 0 0 0 0 0 0.25 0"/>
<feBlend mode="normal" in2="BackgroundImageFix" result="effect1_dropShadow_1_59"/>
<feBlend mode="normal" in="SourceGraphic" in2="effect1_dropShadow_1_59" result="shape"/>
</filter>
</defs>
</svg>
