<svg width="20" height="20" viewBox="0 0 20 20" fill="none" xmlns="http://www.w3.org/2000/svg">
<path fill-rule="evenodd" clip-rule="evenodd" d="M20 0H0V20H20V0ZM18.7489 1.55388H1.27765V18.4289H18.7489V1.55388Z" fill="black"/>
<path d="M8.78187 5.3H6.83642V11.7909C6.83642 12.0879 6.79248 12.3379 6.7046 12.5409C6.61672 12.7439 6.48793 12.8985 6.31823 13.0045C6.15157 13.1076 5.94702 13.1591 5.7046 13.1591C5.47429 13.1591 5.27429 13.1136 5.1046 13.0227C4.93793 12.9288 4.80611 12.7955 4.70914 12.6227C4.6152 12.447 4.5652 12.2364 4.55914 11.9909H2.60005C2.59702 12.6091 2.72884 13.1227 2.99551 13.5318C3.26217 13.9379 3.62278 14.2409 4.07732 14.4409C4.5349 14.6379 5.04399 14.7364 5.6046 14.7364C6.2349 14.7364 6.78793 14.6167 7.26369 14.3773C7.73945 14.1379 8.11066 13.797 8.37732 13.3545C8.64702 12.9121 8.78187 12.3909 8.78187 11.7909V5.3Z" fill="black"/>
<path d="M10.4091 10.0091V14.6091H12.3773V11.5909H14.0319C14.747 11.5909 15.3561 11.4591 15.8591 11.1955C16.3652 10.9318 16.7516 10.5636 17.0182 10.0909C17.2849 9.61818 17.4182 9.07273 17.4182 8.45455C17.4182 7.83636 17.2864 7.29091 17.0228 6.81818C16.7622 6.34242 16.3834 5.97121 15.8864 5.70455C15.3894 5.43485 14.7879 5.3 14.0819 5.3H10.4091V6.90909H13.7046C14.0864 6.90909 14.4016 6.97424 14.6501 7.10455C14.8985 7.23182 15.0834 7.41212 15.2046 7.64545C15.3288 7.87576 15.391 8.14545 15.391 8.45455C15.391 8.76061 15.3288 9.03182 15.2046 9.26818C15.0834 9.50152 14.8985 9.68485 14.6501 9.81818C14.4046 9.94849 14.0925 10.0136 13.7137 10.0136H12.3773V10.0091H10.4091Z" fill="black"/>
</svg>
