<svg width="208" height="209" viewBox="0 0 208 209" fill="none" xmlns="http://www.w3.org/2000/svg">
<g filter="url(#filter0_d_11_181)">
<path fill-rule="evenodd" clip-rule="evenodd" d="M203 0H3V200H203V0ZM190.489 15.5388H15.7765V184.289H190.489V15.5388Z" fill="#0287C3"/>
<path d="M90.8187 53H71.3642V117.909C71.3642 120.879 70.9248 123.379 70.046 125.409C69.1672 127.439 67.8793 128.985 66.1823 130.045C64.5157 131.076 62.4702 131.591 60.046 131.591C57.7429 131.591 55.7429 131.136 54.046 130.227C52.3793 129.288 51.0611 127.955 50.0914 126.227C49.152 124.47 48.652 122.364 48.5914 119.909H29.0005C28.9702 126.091 30.2884 131.227 32.9551 135.318C35.6217 139.379 39.2278 142.409 43.7732 144.409C48.349 146.379 53.4399 147.364 59.046 147.364C65.349 147.364 70.8793 146.167 75.6369 143.773C80.3945 141.379 84.1066 137.97 86.7732 133.545C89.4702 129.121 90.8187 123.909 90.8187 117.909V53Z" fill="#0287C3"/>
<path d="M107.091 100.091V146.091H126.773V115.909H143.319C150.47 115.909 156.561 114.591 161.591 111.955C166.652 109.318 170.516 105.636 173.182 100.909C175.849 96.1818 177.182 90.7273 177.182 84.5455C177.182 78.3636 175.864 72.9091 173.228 68.1818C170.622 63.4242 166.834 59.7121 161.864 57.0455C156.894 54.3485 150.879 53 143.819 53H107.091V69.0909H140.046C143.864 69.0909 147.016 69.7424 149.501 71.0455C151.985 72.3182 153.834 74.1212 155.046 76.4545C156.288 78.7576 156.91 81.4545 156.91 84.5455C156.91 87.6061 156.288 90.3182 155.046 92.6818C153.834 95.0152 151.985 96.8485 149.501 98.1818C147.046 99.4849 143.925 100.136 140.137 100.136H126.773V100.091H107.091Z" fill="#0287C3"/>
</g>
<defs>
<filter id="filter0_d_11_181" x="0" y="0" width="208" height="209" filterUnits="userSpaceOnUse" color-interpolation-filters="sRGB">
<feFlood flood-opacity="0" result="BackgroundImageFix"/>
<feColorMatrix in="SourceAlpha" type="matrix" values="0 0 0 0 0 0 0 0 0 0 0 0 0 0 0 0 0 0 127 0" result="hardAlpha"/>
<feOffset dx="1" dy="5"/>
<feGaussianBlur stdDeviation="2"/>
<feComposite in2="hardAlpha" operator="out"/>
<feColorMatrix type="matrix" values="0 0 0 0 0 0 0 0 0 0 0 0 0 0 0 0 0 0 0.25 0"/>
<feBlend mode="normal" in2="BackgroundImageFix" result="effect1_dropShadow_11_181"/>
<feBlend mode="normal" in="SourceGraphic" in2="effect1_dropShadow_11_181" result="shape"/>
</filter>
</defs>
</svg>
